<?xml version="1.0" encoding="UTF-8"?>
<svg width="752pt" height="752pt" version="1.1" viewBox="0 0 752 752" xmlns="http://www.w3.org/2000/svg">
 <defs>
  <clipPath id="a">
   <path d="m139.21 196h473.58v360h-473.58z"/>
  </clipPath>
 </defs>
 <g clip-path="url(#a)">
  <path d="m522.16 416.79v16.617c0 3.7773-2.2656 6.7969-6.043 6.7969h-97.434c-3.7773 0-6.7969-3.0195-6.7969-6.7969v-11.328c-1.5117-0.75391-3.0195-0.75391-5.2891-1.5117-9.0625-4.5312-9.8203-11.328-6.7969-18.129 2.2656-5.2891 7.5547-10.574 10.574-13.594l1.5117-2.2656v-3.7773c0-9.8203 6.7969-18.129 18.129-23.414 9.8203-5.2891 22.66-8.3086 37.012-8.3086 14.352 0 27.945 3.0195 37.766 8.3086 10.574 5.2891 17.371 13.594 17.371 23.414v7.5547c3.0195 1.5117 6.043 3.7773 9.0625 6.043 3.0195 3.7773 5.2891 7.5547 4.5312 11.328 0 1.5117 0 2.2656-0.75391 3.0195-3.0195 6.7969-7.5547 7.5547-12.84 6.043zm-87.617-66.469c-31.723-4.5312-63.445-4.5312-94.414 0.75391v2.2656c0 27.191 21.902 49.094 49.852 49.094 0-0.75391 0.75391-2.2656 1.5117-3.7773 2.2656-5.2891 6.7969-10.574 10.574-14.352l1.5117-1.5117v-4.5312c0-9.0625 6.7969-17.371 18.129-23.414 3.7773-1.5117 8.3086-3.7773 12.84-4.5312zm-27.191-34.746c-1.5117 3.0195-5.2891 3.0195-7.5547 1.5117-2.2656-1.5117-3.0195-5.2891-1.5117-7.5547 2.2656-3.0195 4.5312-5.2891 6.7969-6.7969h0.75391c3.0195-2.2656 6.7969-3.0195 9.8203-3.0195 4.5312 0 7.5547 1.5117 11.328 3.7773 2.2656 1.5117 3.7773 3.7773 5.2891 6.043 1.5117 3.0195 0.75391 6.043-1.5117 7.5547-3.0195 1.5117-6.043 0.75391-7.5547-1.5117-0.75391-1.5117-1.5117-2.2656-3.0195-3.0195-1.5117-0.75391-3.0195-1.5117-4.5312-1.5117-1.5117 0-3.0195 0-4.5312 1.5117-1.5117 0.75391-3.0195 1.5117-3.7773 3.0195zm-55.895 0c-1.5117 3.0195-5.2891 3.0195-7.5547 1.5117-2.2656-1.5117-3.0195-5.2891-1.5117-7.5547 2.2656-3.0195 4.5312-5.2891 7.5547-6.7969 3.0195-1.5117 6.7969-3.0195 10.574-3.0195s7.5547 1.5117 10.574 3.7773c2.2656 1.5117 3.7773 3.7773 6.043 6.043 1.5117 3.0195 0.75391 6.043-2.2656 7.5547-2.2656 1.5117-6.043 0.75391-7.5547-1.5117-0.75391-1.5117-1.5117-2.2656-3.0195-3.0195-0.75391-0.75391-2.2656-1.5117-3.7773-1.5117s-3.7773 0.75391-5.2891 1.5117c-1.5117 0.75391-2.2656 1.5117-3.7773 3.0195zm21.148-71.754c28.703 0 55.895 12.086 74.777 31.723 18.129 17.371 29.457 41.543 30.969 68.734-5.2891-0.75391-11.328 0-16.617 0-3.0195-46.828-41.543-83.84-89.883-83.84-49.094 0-89.883 40.031-89.883 89.883 0 49.852 40.785 89.883 89.883 89.883 12.84 0 24.172-2.2656 34.746-6.7969v10.574l14.352 1.5117c-15.105 6.7969-30.969 11.328-48.34 11.328-29.457 0-55.895-12.086-75.531-30.969-18.883-19.637-30.969-46.074-30.969-75.531 0-29.457 12.086-55.895 30.969-74.777 18.883-19.637 46.074-31.723 75.531-31.723zm-92.902 311.95c-7.5547 0-13.594-6.7969-13.594-14.352 0-7.5547 6.043-13.594 13.594-13.594h192.61c7.5547 0 13.594 6.043 13.594 13.594 0 7.5547-6.043 14.352-13.594 14.352zm-106.5-359.53h405.6c9.0625 0 18.129 3.7773 24.172 9.8203 6.043 6.7969 9.8203 15.105 9.8203 24.172v240.19c0 9.8203-3.7773 18.129-9.8203 24.172-6.043 6.043-15.105 9.8203-24.172 9.8203h-405.6c-9.0625 0-17.371-3.7773-24.172-9.8203-6.043-6.043-9.8203-14.352-9.8203-24.172v-240.19c0-9.0625 3.7773-17.371 9.8203-24.172 6.7969-6.043 15.105-9.8203 24.172-9.8203zm405.6 27.945h-405.6c-1.5117 0-3.0195 0.75391-4.5312 1.5117-0.75391 1.5117-1.5117 3.0195-1.5117 4.5312v240.19c0 2.2656 0.75391 3.7773 1.5117 4.5312 1.5117 1.5117 3.0195 2.2656 4.5312 2.2656h405.6c1.5117 0 3.7773-0.75391 4.5312-2.2656 1.5117-0.75391 1.5117-2.2656 1.5117-4.5312v-240.19c0-1.5117 0-3.0195-1.5117-4.5312-0.75391-0.75391-3.0195-1.5117-4.5312-1.5117zm-123.12 167.68-30.969 0.75391c1.5117 0 0 0-2.2656 1.5117-3.0195 2.2656-11.328 14.352-3.7773 12.84 6.7969-1.5117 24.926-19.637 58.914 3.7773 8.3086 6.7969 14.352 2.2656 21.902-6.7969 3.0195-3.7773-8.3086-10.574-12.086-12.086h-31.727zm-12.84 6.043c52.871-23.414-18.883 8.3086 0 0zm77.797 7.5547c3.0195 3.0195 7.5547-0.75391 0.75391-5.2891-0.75391 0-11.328-6.7969-9.8203-4.5312 4.5312 4.5312 0.75391 3.0195 3.7773 6.043 0.75391 0.75391 5.2891 3.7773 5.2891 3.7773zm-95.926-23.414h84.594c0-3.7773-3.7773-8.3086-10.574-11.328-7.5547-4.5312-18.883-6.7969-31.723-6.7969-12.086 0-23.414 2.2656-30.969 6.7969-6.7969 3.0195-10.574 7.5547-11.328 11.328zm84.594 31.723c-2.2656 0-5.2891 0.75391-8.3086 3.0195-12.84 13.594-21.902 8.3086-33.988 1.5117-2.2656-0.75391-3.7773-2.2656-6.043-3.0195-13.594-7.5547-21.902-3.0195-28.703 1.5117-2.2656 1.5117-4.5312 2.2656-7.5547 3.7773v6.7969h84.594v-13.594z"/>
 </g>
</svg>
